<svg width="3558" height="505" viewBox="0 0 3558 505" fill="none" xmlns="http://www.w3.org/2000/svg">
<path d="M3063.03 5.57881C3077.59 -2.59452 3096.25 -1.42118 3110.59 6.71216C3117.41 10.3922 3122.03 16.7921 3126.44 22.9655C3138 22.7788 3150.53 25.9788 3158.2 35.2188C3167.93 46.2588 3165.95 65.3388 3153.93 73.9522C3145.65 79.7788 3135.44 83.2322 3125.32 83.2322C3118.92 82.2188 3112.51 81.4188 3106.04 81.8188C3102.13 86.4988 3097.43 90.4455 3091.93 93.0988C3089.59 99.9522 3087.4 107.165 3088.85 114.485C3091.53 128.899 3089.04 143.499 3088.72 157.992C3082.04 155.379 3082.21 147.192 3083.04 141.286C3084.37 131.832 3080.25 122.765 3080.73 113.339C3081.16 101.325 3079.72 89.3255 3077.64 77.5255C3072.27 78.2988 3066.89 79.1122 3061.51 79.6055C3066.67 83.6188 3072.29 86.9655 3077.84 90.3788C3077.93 91.4188 3078.11 93.5122 3078.19 94.5655C3071.72 90.4855 3065.4 86.0588 3060.28 80.3255C3046.91 82.5522 3032.17 82.8055 3019.96 76.1522C3003.37 66.9788 3003.2 39.8055 3018.95 29.6588C3026.49 23.8588 3036.29 24.5388 3045.24 23.6055C3049.52 16.2322 3055.35 9.53882 3063.03 5.57881ZM3085.43 73.0055C3079.55 74.0855 3074.81 69.9788 3070.4 66.8455C3070.28 67.2588 3070.04 68.0722 3069.92 68.4855C3075.33 73.2322 3082.11 77.5655 3082.96 85.4322C3084.17 81.7122 3085.28 77.6855 3088.51 75.1388C3092.03 72.1121 3094.87 68.2855 3096.12 63.7388C3093.15 67.3388 3090.71 72.6721 3085.43 73.0055ZM3090.21 76.5388C3086.88 81.5255 3087.32 87.7788 3087.57 93.4855C3088.57 91.0722 3089.55 88.6322 3090.56 86.2055C3091.05 86.0055 3092.03 85.5788 3092.52 85.3655C3092.44 86.5655 3092.31 88.9522 3092.24 90.1522C3096.32 87.3122 3100.56 84.5388 3103.88 80.7655C3099.4 79.0855 3094.85 77.5388 3090.21 76.5388Z" fill="#EF9D97"/>
<path d="M460.2 13.5521C476.933 1.44542 501.707 1.1921 518.093 14.0588C522.253 17.3654 525.413 21.7121 528.4 26.0721C536.16 26.8988 544.36 27.2854 551.24 31.4454C559.533 35.9921 564.92 45.2587 564.787 54.7121C564.907 64.5121 559.653 74.6054 550.507 78.7521C537.893 85.5921 523.213 82.8988 509.52 83.5121C506.453 89.2454 502.307 94.5654 496.413 97.6054C496.587 96.6321 496.96 94.6854 497.147 93.7121C500.973 90.3654 504.92 87.1121 507.787 82.8454C503.853 81.8988 499.893 81.0188 495.947 80.1121C491.92 89.3521 493.08 99.5521 492.827 109.339C493.107 122.352 489.187 135.072 490.013 148.112C490.627 153.179 488.427 158.525 483.453 160.472C483.093 153.632 483.187 146.779 483.133 139.925C479.16 135.392 475.467 130.179 469.8 127.632C465.293 125.485 460.067 125.379 455.68 123.019C450.867 118.339 447.547 111.872 441.213 108.939C435.16 106.285 428.44 104.685 421.8 105.232C427.827 107.685 434.68 108.085 440.107 111.952C445.373 115.259 449.067 120.419 452.147 125.712C460.84 126.392 469.747 129.805 474.8 137.259C480.413 144.245 480.187 153.739 479.147 162.152C478.52 166.365 475.36 169.605 472 171.939C464.973 176.605 456.347 178.485 447.973 177.845C442.573 177.299 437.547 180.379 432.147 179.632C427.76 179.352 424.84 175.685 421.747 173.045C423.053 171.512 424.387 170.005 425.707 168.485C421.4 171.165 416.84 173.805 411.707 174.405C408.893 175.179 407.227 172.285 405.147 170.992C402.467 168.605 398.987 167.472 395.48 167.192C399.947 169.792 405.267 171.419 408.04 176.179C398.787 178.352 389.373 175.179 380.133 177.192C373.36 178.219 366.32 176.352 360.48 172.899C344.24 163.259 342.387 135.952 358.6 125.352C364.44 121.339 371.653 120.525 378.547 120.325C383.013 114.085 388.133 107.792 395.533 104.992C401.293 102.499 407.747 102.365 413.893 103.045C417.893 96.7654 422.733 90.0721 430.48 88.3921C442.613 84.7521 454.72 90.2988 464.947 96.4588C471.787 100.352 478.56 105.539 481.533 113.085C484.293 121.419 482.347 130.312 483.333 138.885C484.12 127.299 484.813 115.672 484.667 104.059C484.733 100.379 483.04 96.7921 480.053 94.6321C475.453 91.1921 471.107 87.4321 467.347 83.0988C454.867 82.1388 441.613 86.2054 429.867 80.4454C421.08 76.6854 414.253 68.2988 413.053 58.7254C411.573 48.0454 417.307 36.9921 426.667 31.7388C433.467 27.4854 441.68 26.9254 449.507 27.2188C452.373 22.1788 455.373 16.9654 460.2 13.5521ZM473.427 67.7388C476.427 71.5788 480.253 74.6588 483.987 77.7654C479.933 81.4321 474.267 80.6054 469.253 81.1254C473.853 86.6721 480.32 90.1254 485.173 95.3921C484.813 89.6988 484.467 83.9921 483.253 78.4054L485.493 78.0454C486.68 82.2588 487.627 86.5388 488.093 90.9121C489.12 86.2321 490.4 81.5388 492.88 77.3921C496.733 76.7921 498.72 73.2454 500.84 70.4054C496.733 72.5921 492.827 75.9521 487.893 75.6854C481.853 76.1521 478.013 70.6721 473.427 67.7388Z" fill="#EF9D97"/>
<path d="M3104.97 98.2586C3115.52 90.9386 3128.27 85.4586 3141.37 87.1252C3150.72 87.5919 3159.29 93.5919 3162.87 102.259C3170.67 101.752 3179.03 101.979 3185.84 106.352C3191.09 109.299 3194.75 114.232 3197.73 119.339C3205.81 120.099 3214.6 121.379 3220.71 127.285C3230.67 136.725 3231.27 153.205 3224.39 164.565C3217.03 175.845 3201.83 179.672 3189.35 175.859C3186.28 175.152 3183.13 172.859 3180.08 174.672C3176.08 176.445 3171.36 177.152 3167.39 175.045C3166.2 173.912 3167.92 172.059 3169.01 171.499C3172.21 169.845 3175.73 168.859 3178.95 167.139C3171.63 166.445 3166.03 175.605 3158.77 171.885C3154.92 170.552 3151.37 168.579 3147.77 166.779C3149.04 168.712 3150.39 170.592 3151.81 172.485C3145.81 179.352 3136.23 179.272 3128.08 177.179C3119.33 178.992 3110.23 176.499 3102.68 172.032C3097.47 169.005 3094.57 163.112 3093.99 157.259C3092.73 147.205 3097.52 136.952 3105.27 130.619C3110.16 126.579 3116.75 126.285 3122.8 125.725C3125.85 120.512 3129.04 115.032 3134.27 111.685C3140.45 107.419 3148.2 107.085 3155.19 104.845C3146.83 103.539 3137.93 104.939 3130.75 109.512C3125.95 112.645 3123.15 117.859 3118.96 121.632C3113.84 123.992 3107.95 124.165 3102.96 126.859C3097.97 129.232 3094.44 133.605 3091.07 137.779C3089.6 130.605 3090.08 123.192 3091.39 116.019C3092.93 108.365 3099.09 102.859 3104.97 98.2586Z" fill="#EF9D97"/>
<path d="M3050.07 96.8054C3053.91 92.0454 3060.96 91.5387 3066.41 93.4854C3075.09 97.2187 3081.4 108.005 3076.68 117.125C3067.07 117.045 3058.43 111.912 3050.72 106.659C3046.95 104.712 3047.79 99.5921 3050.07 96.8054Z" fill="#EF9D97"/>
<path d="M498.307 102.312C502.6 97.8322 508.013 92.8455 514.72 93.5255C519.56 93.5255 522.8 97.6588 525.067 101.432C520.24 108.752 512.32 113.726 503.973 116.072C501 117.032 497.987 115.939 495.12 115.165C495.227 110.739 494.84 105.685 498.307 102.312Z" fill="#EF9D97"/>
<path d="M2996.33 105.659C3011.08 97.0454 3030.19 99.2187 3044.53 107.632C3049.52 110.565 3052.73 115.525 3055.51 120.459C3063.95 120.405 3073.73 123.712 3077.15 132.152C3080.99 140.259 3078.08 149.485 3080.79 157.832C3081.47 160.565 3082.77 163.699 3080.76 166.219C3075.97 173.672 3066.76 176.445 3058.49 177.845C3050.48 178.659 3041.99 178.752 3034.57 175.192C3035.29 172.712 3036.15 170.259 3037 167.805C3034.13 170.672 3031.08 174.139 3026.68 174.112C3021.52 173.765 3017.48 170.139 3013.36 167.432C3015.04 169.499 3016.77 171.565 3018.51 173.632C3015.25 178.085 3009.25 180.525 3003.99 178.339C3000.53 177.552 2997.16 174.285 2993.6 176.299C2982.91 180.832 2969.35 179.379 2960.79 171.232C2949.36 159.165 2951.17 137.325 2964.55 127.379C2970.07 123.165 2977.13 121.792 2983.97 122.085C2986.39 115.579 2990.08 109.139 2996.33 105.659Z" fill="#EF9D97"/>
<path d="M531.213 105.992C546 99.152 565.267 100.819 577.493 112.005C580.8 115.232 582.92 119.405 584.973 123.485C592.533 123.952 600.56 125.619 606.12 131.192C612.84 137.312 616.267 146.952 614.32 155.912C612.88 166.499 603.973 174.712 594.093 177.752C587.013 179.605 579.947 177.312 573.267 175.165C570.973 176.245 568.96 177.819 566.653 178.845C561.267 179.552 556.627 176.125 551.96 174.072C550.96 174.352 548.987 174.925 547.987 175.205C549.44 172.939 550.893 170.672 552.307 168.392C549.413 170.992 546.24 173.312 542.427 174.312C539.4 172.005 536.4 169.672 533.12 167.752C534.467 170.179 536.013 172.472 537.573 174.779C524.547 179.712 509.36 178.045 497.747 170.379C495.133 168.645 492.28 166.272 492.347 162.832C492.227 154.792 492.933 146.752 493.6 138.752C493.88 131.299 499.48 124.899 506.187 122.179C509.973 120.579 514.16 120.752 518.2 120.659C521.467 114.992 524.987 108.819 531.213 105.992Z" fill="#EF9D97"/>
<path d="M3088.65 200.045C3086.72 187.259 3084.2 174.019 3087.01 161.192C3089.23 165.939 3090.92 170.939 3092.2 176.032C3096.84 194.925 3100.88 214.205 3108.88 232.045C3117.99 225.112 3127.61 218.579 3134.97 209.699C3140.77 202.752 3146.43 195.152 3148.41 186.139C3149.51 181.032 3150.28 175.685 3153.48 171.352C3153.97 177.645 3153.08 184.005 3154.05 190.272C3157.17 191.125 3158.56 187.379 3160.07 185.339C3162.15 182.419 3163.01 178.219 3166.17 176.285C3164.67 183.885 3159.59 190.312 3154.57 196.005C3144.83 205.845 3137.25 217.765 3126.21 226.299C3122 229.872 3116.99 232.405 3113.05 236.272C3111.28 239.605 3113.56 243.459 3114.45 246.779C3122.48 267.685 3129.29 289.005 3136.44 310.219C3158.73 301.405 3180.13 290.539 3202.11 280.965C3234.49 266.739 3266.91 252.499 3300.07 240.165C3321.61 232.099 3343.93 226.432 3366.28 221.099C3393.64 214.405 3421.35 208.992 3449.4 206.179C3485.24 202.365 3521.35 202.832 3557.33 203.885V208.765C3523.71 206.832 3489.93 206.685 3456.36 209.632C3419.67 212.699 3383.55 220.405 3347.88 229.365C3314.05 237.605 3281.75 250.805 3249.8 264.432C3223 275.459 3196.75 287.699 3170.51 299.952C3153.33 307.725 3136.35 315.965 3118.67 322.552C3090.59 333.539 3061.65 342.152 3033.23 352.152C3014.76 358.992 2996.51 366.512 2977.48 371.699C2952.99 378.032 2927.91 381.685 2902.76 384.072C2873 386.405 2843.12 386.259 2813.29 386.112C2784.25 386.192 2755.45 382.205 2726.63 379.379C2693.32 375.805 2660.03 372.072 2626.61 369.912C2595.11 367.565 2563.47 368.312 2531.96 369.992C2499.55 371.872 2467.15 375.245 2435.31 381.752C2406.69 387.712 2378.63 395.979 2350.56 404.059C2337.76 407.926 2324.84 411.432 2312.35 416.179C2276.2 429.672 2240.08 443.419 2202.91 453.859C2188.17 458.125 2173.57 462.845 2158.73 466.752C2142.44 471.232 2125.8 474.219 2109.29 477.712C2076.12 484.752 2042.92 492.072 2009.19 495.886C1949.47 502.632 1889.31 502.779 1829.32 504.419C1756.44 504.965 1683.56 505.152 1610.68 504.392C1592.13 504.699 1573.63 503.565 1555.09 503.485C1538.07 503.085 1521.01 503.379 1504 502.432C1470.59 502.219 1437.11 501.086 1403.95 496.726C1377.76 493.272 1351.61 488.659 1326.4 480.632C1267.08 462.392 1214.32 426.872 1153.6 412.659C1121.61 404.952 1088.2 404.099 1055.76 409.352C1018.23 414.459 982.493 427.525 945.613 435.579C921.76 441.219 897.787 446.739 873.347 449.232C837.893 452.392 802.16 451.179 766.813 447.272C739.373 444.259 712.333 437.965 686.347 428.659C663.107 420.112 640.187 410.565 618.147 399.232C600.4 389.845 583.653 378.739 566.707 368.019C545.413 354.512 525.44 339.099 505.013 324.365C485.04 309.712 463.68 297.152 442.587 284.219C422.76 272.459 401.653 262.979 380.133 254.765C341.747 241.019 300.773 234.085 259.987 235.272C240.76 235.272 221.787 238.952 203.04 242.832C175.32 248.725 148.053 256.779 121.547 266.792C95.3333 277.005 69.56 288.339 43.2533 298.285C28.9333 303.845 14.44 308.939 0 314.165V309.565C38.8533 296.765 76.52 280.685 114.373 265.232C139.187 255.379 164.787 247.512 190.773 241.405C224.2 233.245 258.853 229.459 293.213 232.325C326.947 234.285 360.093 242.765 391.4 255.325C410.08 262.912 428.467 271.472 445.613 282.125C450.253 271.485 454.64 260.752 459.16 250.085C461.12 245.472 462.68 240.712 463.787 235.832C450.307 228.272 437.933 218.365 429.027 205.619C424.16 198.232 414.453 194.685 412.36 185.432C409.413 183.299 407.4 180.232 407.027 176.565C412.547 181.099 414.773 188.339 419.773 193.405C421.04 186.485 420.52 179.445 420.747 172.459C426.347 179.819 424.533 189.805 429.187 197.592C437.64 211.952 451.267 222.232 465.573 230.259C473.2 211.605 477.44 191.792 481.667 172.152C482.48 168.485 483.933 165.005 485.52 161.605C486.453 165.459 487.28 169.365 487.307 173.339C487.56 193.405 481.76 212.792 477.627 232.232C480.64 231.339 483.667 230.432 486.573 229.232C503.547 221.779 520.52 212.392 531.88 197.312C537.347 190.405 536.773 181.045 540.227 173.232C541.253 179.045 540.973 184.965 541.013 190.845C548.2 189.312 550.307 181.445 554.773 176.605C553.707 183.112 549.387 188.325 544.707 192.672C532.387 203.939 521.573 217.219 506.653 225.259C499.733 229.179 492.987 233.592 485.347 236.019C481.627 237.405 477.427 238.339 474.613 241.352C472.347 244.405 471.493 248.219 470.267 251.752C466.467 264.072 460.933 275.765 455.173 287.272C461.453 291.845 468.04 295.965 474.68 300.005C492.267 310.499 508.96 322.379 525.347 334.645C546.213 350.632 567.893 365.632 590.733 378.672C590.84 367.645 593.52 356.939 595.147 346.112C595.293 343.285 596.36 339.979 594.387 337.539C588.547 329.312 582.227 321.419 576.467 313.139C578.267 314.539 580.053 315.979 581.84 317.445C582.013 316.339 582.347 314.125 582.52 313.019C585.587 321.752 591 329.379 597.333 336.059C597.68 325.792 599.453 315.632 599.6 305.379C599.827 301.019 595.293 298.765 592.787 295.872C593.213 294.712 594.053 292.405 594.48 291.259C595.053 292.445 596.187 294.845 596.76 296.045C596.933 294.699 597.28 292.019 597.453 290.672C597.92 294.219 598.733 297.699 599.96 301.059C600.387 297.765 600.76 294.485 601.08 291.179C601.547 291.205 602.48 291.259 602.96 291.285C603.187 294.565 603.4 297.805 603.707 301.099C604.907 297.299 606.04 293.485 607.307 289.699C607.307 292.645 607.293 295.579 607.253 298.539C608.36 295.992 609.453 293.472 610.573 290.952L612.76 291.992C610.707 296.965 607.28 301.165 604.867 305.912C602.6 316.459 603.707 327.379 602.373 338.059C606.76 334.125 611.48 330.499 615.267 325.965C618.227 322.125 620.56 317.832 623.64 314.085C622.987 312.699 622.347 311.312 621.707 309.952C620.453 310.472 617.947 311.512 616.693 312.032C615.573 308.379 613.68 303.979 616.44 300.579C619.547 296.325 622.44 290.819 628.133 289.819C632.84 288.765 637.573 286.925 642.48 287.445C649.173 288.845 656.08 295.032 654.133 302.512C652.467 309.339 644.84 312.139 638.44 311.632C637.96 310.845 636.987 309.272 636.507 308.472C632.413 311.245 628.067 313.579 623.533 315.539C622.427 317.752 621.307 319.939 620.213 322.165C623.267 319.712 626.32 317.245 629.453 314.899C622.413 325.232 612.92 333.712 602.453 340.459C601.12 351.805 600.213 363.219 599.68 374.632C599.653 377.632 599.427 380.739 600.32 383.672C604 387.339 608.88 389.459 613.293 392.112C632.187 402.885 652.133 411.672 672.4 419.512C673.653 410.059 674.627 400.539 674.453 391.005C666.8 385.392 660.587 377.979 655.84 369.792C657.467 371.099 659.107 372.419 660.733 373.765C660.627 371.005 660.547 368.272 660.48 365.525C661.893 369.632 662.907 373.925 665.053 377.739C667.507 381.845 671.333 384.859 674.893 387.979C674.373 380.485 674.773 372.939 673.907 365.472C672.493 359.606 670.053 354.005 666.907 348.872C662.013 349.085 656.467 347.952 653.48 343.725C653.147 337.765 658.44 333.965 661.947 329.939C668.827 321.152 683.547 320.832 691.12 328.872C694.387 332.325 698.2 336.299 698.493 341.299C697.44 347.619 688.747 346.259 685.787 351.099C683.293 355.485 680.08 359.472 677.973 364.059C677.133 371.779 678.427 379.539 678.693 387.272C682.747 384.112 686.773 380.792 689.853 376.632C692.293 373.152 694.68 369.312 699.053 368.099C693.787 377.285 686.08 384.645 678.44 391.845C678.16 401.659 677.693 411.472 677.973 421.299C717.667 436.912 760.107 445.259 802.733 446.299C820.493 447.299 838.32 447.485 856.08 446.365C874.28 445.992 892.387 443.472 910.16 439.632C937.6 433.712 964.893 427.112 991.973 419.726C1015.43 413.192 1039.24 407.845 1063.36 404.432C1088.35 400.859 1113.93 400.952 1138.77 405.579C1176.36 412.312 1211.52 427.819 1246.15 443.325C1276.05 457.779 1306.57 471.365 1338.63 480.325C1399.84 497.059 1463.71 499.245 1526.79 499.512C1543.2 499.299 1559.56 500.592 1575.97 500.539C1595.08 500.819 1614.19 500.872 1633.31 501.005C1661.76 501.005 1690.2 502.005 1718.67 501.699C1758.69 501.752 1798.69 501.045 1838.72 500.739C1902.75 499.245 1967.05 498.645 2030.57 489.432C2063.96 484.632 2096.88 477.112 2129.87 470.152C2156.21 464.565 2182.03 456.845 2207.8 449.072C2238.91 439.712 2269.32 428.272 2299.89 417.352C2325.4 407.925 2351.47 400.099 2377.6 392.592C2401.75 386.032 2426.01 379.765 2450.69 375.499C2483.69 369.592 2517.19 366.872 2550.67 365.579C2621.21 361.499 2691.29 372.672 2761.33 379.272C2788.35 381.899 2815.49 382.432 2842.63 382.112C2861.56 381.912 2880.56 382.606 2899.43 380.632C2899.83 376.326 2900.56 371.992 2900.15 367.659C2896.12 361.152 2886.07 357.632 2887.11 348.672C2890.87 354.339 2894.69 360.125 2900.47 364.005C2900.75 358.272 2901.56 352.485 2900.76 346.792C2898.56 343.685 2895.64 340.979 2894.84 337.099C2895.92 337.832 2898.08 339.299 2899.16 340.032C2899.27 339.019 2899.47 337.019 2899.56 336.005C2900.07 336.232 2901.09 336.699 2901.6 336.925C2901.69 338.272 2901.87 340.979 2901.96 342.325C2904 339.925 2906.05 337.525 2908.28 335.272C2906.93 339.179 2904.76 342.739 2903.49 346.672C2903.07 352.499 2903.67 358.352 2903.61 364.205C2909.67 359.352 2914.4 353.179 2919.83 347.685C2917.81 356.499 2909.83 361.779 2903.45 367.392C2903.47 371.552 2903.52 375.725 2903.63 379.899C2915.88 379.632 2927.96 377.405 2940.04 375.525C2950.97 373.632 2961.96 371.805 2972.65 368.739C2972.79 360.952 2972.87 353.165 2973.4 345.392C2973.41 342.699 2973.89 339.645 2971.99 337.445C2965.81 329.072 2957.88 322.112 2952.24 313.325C2953.31 313.979 2955.45 315.272 2956.53 315.925C2956.53 313.232 2956.6 310.565 2956.72 307.899C2958.53 312.805 2959.67 318.125 2962.96 322.339C2966.35 326.832 2970.12 331.032 2973.84 335.272C2973.83 327.712 2973.61 320.152 2973.87 312.605C2975.4 312.725 2976.97 312.845 2978.57 312.992C2980.37 310.392 2982.23 307.805 2984.23 305.325C2982.75 309.485 2980.53 313.339 2977.89 316.872C2977.97 323.779 2978.21 330.699 2978.36 337.619C2982.31 334.725 2986.37 331.952 2989.89 328.525C2993.35 325.112 2995.52 320.699 2998.17 316.685C2997.2 328.245 2986.92 334.872 2978.24 340.739C2978.12 349.605 2978.69 358.445 2979.31 367.272C3007.83 359.365 3034.81 346.952 3062.97 337.952C3083.01 330.779 3103.68 325.179 3122.99 316.112C3118.47 296.365 3111.59 277.285 3105.71 257.939C3103.95 252.819 3102.85 247.325 3099.89 242.739C3096.96 240.312 3093.11 239.525 3089.65 238.245C3070.17 231.939 3052.11 220.885 3038.51 205.499C3030.52 197.805 3022.59 190.099 3015.41 181.632C3017.51 179.392 3019.13 176.832 3020.79 174.205C3020.27 176.779 3019.8 179.352 3019.37 181.939C3021.68 186.005 3024.91 189.405 3028.53 192.352C3030.45 186.072 3030.84 179.485 3031.67 173.005C3034.49 182.165 3035.65 192.099 3041.25 200.165C3046.39 207.379 3053.28 213.179 3060.51 218.219C3071.24 225.379 3082.96 232.005 3096.09 233.072C3094.03 221.965 3090.19 211.259 3088.65 200.045ZM668.64 348.939C670.773 351.925 672.867 354.939 674.96 357.966C675.08 356.899 675.293 354.752 675.413 353.672C675.787 353.685 676.52 353.699 676.893 353.699C676.907 355.739 676.907 357.792 676.933 359.859C678.827 358.059 680.773 356.299 682.787 354.605C683.44 352.419 684.053 350.205 684.693 348.032C683.867 347.779 682.227 347.299 681.4 347.045C681 347.432 680.187 348.179 679.787 348.565C678.8 348.979 676.813 349.792 675.827 350.205C673.987 349.139 672.173 348.072 670.373 346.952C669.947 347.445 669.08 348.445 668.64 348.939Z" fill="#EF9D97"/>
<path d="M2951.93 270.612C2957.21 269.412 2963.31 269.225 2968.07 272.265C2970.85 273.998 2972.77 276.718 2974.83 279.211C2978.1 279.478 2981.81 279.078 2984.61 281.251C2989.97 285.758 2994.13 292.345 2993.14 299.625C2986.31 302.998 2978.7 302.345 2971.35 302.225C2969.77 300.718 2968.35 298.945 2966.51 297.825C2964.82 298.385 2963.21 299.158 2961.66 299.892C2961.81 303.225 2961.82 306.545 2961.89 309.892C2963.63 307.172 2965.43 304.385 2967.99 302.318C2967.91 306.065 2966.98 309.771 2964.45 312.638C2967.99 309.438 2971.85 306.585 2976.02 304.251C2974.54 308.838 2971.26 312.425 2968.09 315.892C2964.43 315.585 2960.78 315.358 2957.15 315.305C2956.93 315.998 2956.45 317.385 2956.22 318.078C2952.49 313.211 2947.93 308.625 2946.46 302.491C2949.31 304.371 2951.73 306.811 2954.02 309.345C2953.86 306.385 2953.78 303.425 2953.73 300.478C2954.15 300.452 2954.99 300.398 2955.42 300.371C2955.63 304.131 2954.87 308.225 2956.69 311.705C2957.89 311.771 2959.11 311.798 2960.38 311.798C2960.54 306.851 2961.78 301.492 2958.93 297.025C2956.59 296.838 2954.27 297.065 2952.01 297.105C2950.78 298.385 2949.62 299.678 2948.49 300.985C2945.98 300.878 2943.51 300.745 2941.07 300.572C2940.57 301.092 2939.58 302.132 2939.09 302.652C2934.22 301.758 2929.09 300.025 2927.09 295.051C2928.53 292.505 2930.13 290.051 2931.94 287.718C2933.33 287.651 2934.75 287.571 2936.22 287.505C2938.5 279.825 2943.95 272.838 2951.93 270.612Z" fill="#EF9D97"/>
<path d="M582.88 268.365C586.507 260.979 594.4 255.432 602.853 256.472C611.6 256.632 618.64 263.005 622.307 270.552C627.12 272.445 630.973 277.192 630.307 282.565C628.867 285.579 625.253 286.699 622.333 287.752C618.493 288.659 613.92 290.192 610.547 287.299C606.8 287.579 603.293 286.179 600.027 284.512C597.747 285.979 595.427 287.379 593.12 288.819C591.173 287.312 589.187 285.859 587.147 284.512C587.24 286.045 587.347 287.579 587.467 289.125C589.613 291.659 591.427 294.432 593.08 297.312C587.987 301.352 580.96 303.485 575.013 299.739C575.053 300.965 575.147 303.432 575.187 304.659C574.573 303.325 573.973 302.005 573.387 300.685C569.28 300.605 564.707 301.379 561.147 298.832C557.613 296.312 555.387 291.005 557.733 287.005C559.707 283.085 564.36 282.005 568.027 280.312C569.28 273.152 575.747 268.339 582.88 268.365Z" fill="#EF9D97"/>
<path d="M2985.84 306.859C2990.69 302.525 2994.48 296.139 3001.35 294.805C3009.24 292.725 3017.55 296.672 3022.41 302.885C3024.97 306.912 3023.36 312.752 3019.28 315.139C3014.49 318.072 3008.68 316.725 3003.49 316.179C3002.88 316.899 3001.65 318.325 3001.04 319.045C3002.17 316.952 3003.29 314.805 3003.59 312.392C2999.88 314.325 2996.2 317.552 2991.72 316.459C2987.84 314.885 2985.83 310.885 2985.84 306.859Z" fill="#EF9D97"/>
<path d="M2894.15 311.712C2900.36 308.285 2908.33 310.032 2913.56 314.539C2917.65 317.992 2922.36 322.312 2922.17 328.139C2920.16 332.792 2914.59 331.579 2910.61 331.539C2910.04 332.192 2908.88 333.485 2908.31 334.139C2906.91 333.112 2905.55 332.099 2904.21 331.099C2902.57 332.272 2901.04 333.472 2899.44 334.619C2897.84 333.432 2896.33 332.259 2894.81 331.085C2889.89 332.152 2885.04 330.779 2880.31 329.592C2880.87 325.912 2880.99 321.392 2884.45 319.112C2887.8 316.819 2890.84 314.099 2894.15 311.712Z" fill="#EF9D97"/>
<path d="M2866.19 335.885C2870.83 334.179 2874.69 329.419 2880.05 330.499C2884.07 330.965 2888.75 331.725 2891.15 335.432C2892.85 338.005 2895.31 341.979 2892.63 344.725C2890.2 347.925 2885.57 345.939 2882.29 345.619C2881.87 346.072 2881.04 346.979 2880.63 347.419C2877.92 347.445 2875.16 347.992 2872.57 347.365C2869.68 345.832 2867.07 343.752 2864.96 341.299C2864.19 339.365 2865.47 337.579 2866.19 335.885Z" fill="#EF9D97"/>
<path d="M2910.57 337.299C2912.69 333.445 2917.61 333.312 2921.39 332.099C2926.48 330.032 2931.52 333.485 2935.12 336.859C2937.43 338.832 2937.15 342.592 2935.31 344.792C2932.68 348.645 2927.36 347.032 2923.57 348.512C2923.07 347.859 2922.05 346.539 2921.55 345.885C2918.63 346.899 2915.29 347.992 2912.56 345.979C2909.19 344.512 2909.15 340.139 2910.57 337.299Z" fill="#EF9D97"/>
<path d="M644.093 349.392C651.373 343.965 661.587 348.219 666.88 354.472C668.96 356.419 668.867 359.352 669.053 361.979C666.48 362.965 663.787 363.632 661.067 364.032C660.427 364.685 659.147 365.979 658.52 366.619C658.4 365.592 658.16 363.525 658.04 362.499C654.907 362.925 653.173 364.605 654.08 368.045C653.653 367.219 652.787 365.579 652.347 364.765C648.84 364.685 644.827 364.565 642.413 361.605C638.867 358.179 639.853 351.805 644.093 349.392Z" fill="#EF9D97"/>
<path d="M689.027 353.165C692.707 348.032 699.413 346.059 705.467 345.979C710.2 345.672 714.107 348.952 717.56 351.752C720.973 354.405 720.027 359.805 717.08 362.459C713.787 366.699 707.093 367.672 702.693 364.765C699.733 366.552 696.2 366.512 693.08 365.179C691.547 365.045 690.013 364.925 688.507 364.832C688.547 360.965 687.587 356.859 689.027 353.165Z" fill="#EF9D97"/>
</svg>
