<svg width="1201" height="460" viewBox="0 0 1201 460" fill="none" xmlns="http://www.w3.org/2000/svg">
<path d="M1123.62 142.731H1076.82V215.986H1039.61V3.48828H1123.62C1166.35 3.48828 1193.97 31.3949 1193.97 72.9642C1193.97 113.952 1166.06 142.731 1123.62 142.731ZM1116.35 36.6274H1076.82V109.592H1115.77C1141.35 109.592 1155.02 95.9291 1155.02 72.6735C1155.02 49.418 1141.06 36.6274 1116.35 36.6274Z" fill="white"/>
<path d="M888.416 156.103V143.603H924.171V156.103C924.171 172.382 933.183 185.172 954.113 185.172C975.043 185.172 983.764 173.254 983.764 154.649V3.48828H1020.97V156.684C1020.97 194.184 994.81 219.765 954.404 219.765C910.799 219.765 888.416 192.73 888.416 156.103Z" fill="white"/>
<path d="M720.404 215.986H684.939V72.3829H717.788L720.695 90.9873C729.706 76.4526 747.148 68.0225 766.625 68.0225C802.671 68.0225 821.275 90.4059 821.275 127.615V215.986H785.81V136.045C785.81 111.917 773.892 100.29 755.578 100.29C733.776 100.29 720.404 115.406 720.404 138.661V215.986Z" fill="white"/>
<path d="M522.9 143.894C522.9 99.1271 555.167 68.3135 599.644 68.3135C644.12 68.3135 676.387 99.1271 676.387 143.894C676.387 188.661 644.12 219.475 599.644 219.475C555.167 219.475 522.9 188.661 522.9 143.894ZM558.365 143.894C558.365 170.056 575.225 187.789 599.644 187.789C624.062 187.789 640.922 170.056 640.922 143.894C640.922 117.732 624.062 99.9992 599.644 99.9992C575.225 99.9992 558.365 117.732 558.365 143.894Z" fill="white"/>
<path d="M558.365 143.894C558.365 170.056 575.225 187.789 599.644 187.789C624.062 187.789 640.922 170.056 640.922 143.894C640.922 117.732 624.062 99.9992 599.644 99.9992C575.225 99.9992 558.365 117.732 558.365 143.894Z" fill="white"/>
<path d="M630.505 82.4682C630.617 82.3605 630.797 82.3323 630.855 82.4764C630.874 82.5229 630.893 82.601 630.887 82.6507C630.719 83.9374 630.207 85.9992 629.947 87.3355C629.569 89.3778 629.299 91.4386 629.138 93.5093C628.711 99.0376 629.216 104.485 628.928 110.028C628.261 122.833 622.38 134.081 614.673 144.07C613.837 145.152 612.96 146.204 612.067 147.247C611.565 147.833 612.112 148.433 612.735 147.979C614.51 146.691 616.324 145.458 618.176 144.284C626.804 138.867 635.905 135.708 646.15 135.783C651.875 135.825 657.675 136.465 663.382 136.026C664.272 135.96 665.161 135.877 666.048 135.778C666.629 135.71 667.824 135.525 668.458 135.545C668.563 135.548 668.687 135.581 668.754 135.661C668.83 135.754 668.763 135.887 668.682 135.976C668.44 136.246 667.907 136.672 667.716 136.835L665.267 138.934C663.386 140.575 661.592 142.314 659.894 144.145C656.837 147.484 653.833 151.362 650.671 154.537C644.168 161.066 635.697 165.365 626.692 167.134C625.024 167.464 623.342 167.719 621.652 167.897C621.384 167.924 621.111 167.949 620.833 167.974C620.429 168.009 620.427 168.634 620.829 168.686C628.757 169.694 636.238 173.067 642.514 177.968C646.579 181.143 650.295 184.655 654.642 187.457C654.916 187.634 655.243 187.842 655.349 188.151C655.368 188.207 655.341 188.265 655.291 188.296C655.272 188.307 655.252 188.314 655.23 188.316C654.044 188.415 652.253 188.144 651.017 188.062C646.126 187.738 641.238 188.668 636.375 189.166C629.259 189.895 622.256 189.583 615.52 186.991C612.909 185.987 610.499 185.006 608.17 183.54C607.92 183.383 607.631 183.666 607.801 183.907C611.542 189.225 612.083 195.828 613.253 202.026C613.436 202.989 613.639 204.05 613.697 205.029C613.71 205.243 613.397 205.269 613.212 205.158C612.697 204.85 611.857 204.127 611.535 203.877C610.456 203.023 609.34 202.216 608.191 201.459C605.347 199.625 603.013 198.394 600.265 196.309C594.117 191.551 589.613 185.012 587.349 177.611C587.101 176.8 586.015 176.587 585.505 177.265C579.16 185.698 574.144 190.84 565.114 197.295C564.199 197.949 563.21 198.608 562.258 199.251C561.942 199.464 561.532 199.481 561.2 199.293L557.497 197.19C556.792 196.789 556.832 195.758 557.561 195.402C564.979 191.781 571.293 187.734 577.078 181.522C577.977 180.557 578.782 179.627 579.567 178.68C580.217 177.897 579.371 176.792 578.396 177.083C572.889 178.706 567.067 178.948 561.444 177.787C560.078 177.507 558.734 177.126 557.424 176.646C553.024 175.058 548.894 172.763 544.335 171.546C544.197 171.51 543.972 171.444 543.773 171.356C543.505 171.238 543.463 170.928 543.713 170.773C544.119 170.52 544.8 170.313 545.117 170.181C545.916 169.851 546.702 169.493 547.475 169.104C553.311 166.195 558.186 163.421 564.595 163.725C564.987 163.744 565.129 163.238 564.779 163.062C557.052 159.184 551.071 153.829 547.129 146.086C545.326 142.546 544.141 139.407 542.525 135.922C541.769 134.306 540.948 132.722 540.064 131.173C539.722 130.565 538.782 128.978 538.433 128.212C538.367 128.068 538.408 127.79 538.553 127.852C540.289 128.595 542.96 130.17 544.655 130.88C547.17 131.934 549.615 132.713 552.066 133.673C558.482 136.187 562.963 138.833 567.346 142.909C568.004 143.521 569.013 142.78 568.613 141.975C563.685 132.071 562.312 120.774 564.723 109.978C565.55 106.29 566.877 102.921 567.845 99.3181C568.444 97.1462 568.962 94.9529 569.399 92.7428C569.657 91.4855 569.934 90.0772 570.221 88.8146C570.254 88.6677 570.307 88.6538 570.406 88.6162C570.437 88.6045 570.472 88.6097 570.497 88.631C570.508 88.6403 570.516 88.6519 570.521 88.6652C571.642 91.5501 573.121 95.9358 574.561 98.5421C576.448 101.861 578.89 104.95 580.968 108.152C586.051 115.983 589.164 124.52 589.989 133.84C590.071 134.763 591.421 134.843 591.611 133.936C594.421 120.546 599.497 109.476 610.584 99.7084C614.591 96.1777 619.003 93.3274 622.888 89.9734C624.519 88.579 626.081 87.1061 627.568 85.5599C628.461 84.6331 629.569 83.3682 630.505 82.4682Z" fill="#1A3156"/>
<path d="M417.852 219.474C355.934 219.474 315.818 176.451 315.818 109.882C315.818 43.8948 357.388 0 419.596 0C469.886 0 507.386 29.3601 514.653 74.9991H475.41C468.142 50.2901 446.921 35.7554 418.724 35.7554C379.48 35.7554 354.771 64.2435 354.771 109.592C354.771 154.649 379.771 183.719 418.724 183.719C447.503 183.719 469.596 168.603 476.572 145.056H515.235C507.095 189.823 468.142 219.474 417.852 219.474Z" fill="white"/>
<path d="M164.736 282.555V252.904H185.957C199.91 252.904 208.631 249.706 214.735 232.846L218.805 222.09L160.957 72.3828H198.457L235.375 177.033L274.328 72.3828H310.955L240.607 247.962C229.852 274.706 214.735 285.752 191.189 285.752C181.306 285.752 172.585 284.59 164.736 282.555Z" fill="white"/>
<path d="M84.0107 142.731H37.2089V215.986H0V3.48828H84.0107C126.743 3.48828 154.359 31.3949 154.359 72.9642C154.359 113.952 126.452 142.731 84.0107 142.731ZM76.7433 36.6274H37.2089V109.592H76.1619C101.743 109.592 115.406 95.9291 115.406 72.6735C115.406 49.418 101.452 36.6274 76.7433 36.6274Z" fill="white"/>
<rect x="826.855" y="301.488" width="370.612" height="154.367" rx="9.5" stroke="white" stroke-width="7"/>
<path d="M923.21 418.672H870.215V412.272L895.926 389.816C910.747 376.905 914.564 371.291 914.564 361.747C914.564 350.856 908.052 344.232 897.386 344.232C886.27 344.232 878.972 352.316 878.635 364.778H870.551C871.001 347.937 881.667 336.821 897.498 336.821C912.656 336.821 922.761 346.589 922.761 361.298C922.761 372.975 917.484 380.722 901.428 394.757L882.677 411.149H923.21V418.672ZM942.244 378.476C942.244 353.551 954.482 336.709 974.467 336.709C994.34 336.709 1006.58 353.551 1006.58 378.476C1006.58 403.514 994.565 420.131 974.467 420.131C954.257 420.131 942.244 403.514 942.244 378.476ZM950.215 378.476C950.215 399.36 959.085 412.833 974.467 412.833C989.849 412.833 998.719 399.36 998.719 378.476C998.719 357.48 989.849 344.119 974.467 344.119C959.085 344.119 950.215 357.48 950.215 378.476ZM1078.62 418.672H1025.62V412.272L1051.33 389.816C1066.16 376.905 1069.97 371.291 1069.97 361.747C1069.97 350.856 1063.46 344.232 1052.79 344.232C1041.68 344.232 1034.38 352.316 1034.04 364.778H1025.96C1026.41 347.937 1037.08 336.821 1052.91 336.821C1068.06 336.821 1078.17 346.589 1078.17 361.298C1078.17 372.975 1072.89 380.722 1056.84 394.757L1038.09 411.149H1078.62V418.672ZM1106.75 365.34L1126.84 338.281H1136.28L1115.17 366.238C1118.98 364.329 1122.47 363.543 1126.17 363.543C1142.9 363.543 1154.02 375.782 1154.02 391.501C1154.02 408.005 1141.55 420.019 1125.5 420.019C1109.33 420.019 1096.64 407.556 1096.64 391.501C1096.64 382.182 1099.22 375.669 1106.75 365.34ZM1104.84 391.613C1104.84 403.851 1113.26 412.721 1125.5 412.721C1137.4 412.721 1145.93 403.851 1145.93 391.613C1145.93 379.375 1137.4 370.617 1125.5 370.617C1113.26 370.617 1104.84 379.375 1104.84 391.613Z" fill="white"/>
<line x1="3.0598e-07" y1="375.172" x2="772.773" y2="375.172" stroke="white" stroke-width="7"/>
</svg>
