<svg preserveAspectRatio="none" width="100%" height="100%" overflow="visible" style="display: block;" viewBox="0 0 1515.77 307.92" fill="none" xmlns="http://www.w3.org/2000/svg">
<g id="Group 314">
<path id="Subtract" d="M1276.3 167.118C1336.94 147.919 1399.43 136.403 1463.22 141.965C1467.42 142.332 1511.57 142.423 1515.77 143.039V307.92H0V143.214C61.7405 139.42 145.867 142.468 205.648 161.205C237.188 171.091 271.818 182.934 304.098 188.719C331.171 193.572 361.563 193.338 389.029 193.325L460.993 193.268L535.934 193.196C548.105 193.206 560.452 193.163 572.414 193.365C580.046 193.493 580.312 200.948 577.441 202.979C573.539 205.739 549.745 204.738 544.753 204.74L494.596 204.747L340.591 204.817C327.756 204.826 314.512 204.344 301.669 204.864C299.567 204.949 296.965 205.374 295.605 207.08C293.64 209.515 293.442 213.139 295.566 215.537C297.691 217.936 300.6 217.657 303.513 217.66C371.342 217.753 439.202 217.712 507.03 217.712L574.688 217.748C586.807 217.767 598.947 217.965 611.075 217.448C625.297 216.842 627.562 203.963 634.663 194.045C662.294 155.453 718.321 151.888 751.974 184.594C759.054 191.499 765.347 201.419 755.447 209.066C764.159 215.554 766.768 216.83 777.497 218.793C771.528 220.074 768.821 220.815 762.676 220.019C765.699 223.463 768.744 226.892 771.81 230.306C759.779 225.129 757.937 221.856 752.017 210.205C743.706 212.923 739.09 213.422 729.695 212.145C711.466 209.666 685.813 189.553 672.177 212.127C669.64 216.328 668.89 223.261 670.425 227.841C672.467 234.08 676.974 239.21 682.896 242.036C696.665 248.614 751.089 243.416 769.524 245.038C788.466 246.705 806.375 214.641 829.761 212.795C856.388 210.693 882.284 212.572 908.876 212.741L1108.82 212.772L1175.04 212.775C1184.05 212.778 1207.42 214.885 1213.53 209.442L1214.3 207.653C1211.4 200.626 1188.67 203.024 1181.27 203.039L1132.91 203.094L986.431 203.126L954.734 203.236C950.361 203.274 931.482 205.256 934.821 196.02C939.603 191.358 966.441 192.996 974.218 193.011L1039.03 193.151L1112.9 193.344C1140.46 193.473 1169.29 194.443 1196.31 189.129C1222.97 183.89 1250.57 175.265 1276.3 167.118ZM821.864 279.719C810.593 279.278 799.217 279.498 787.925 279.506L723.561 279.611C721.706 281.343 720.421 282.515 720.215 285.154C719.685 291.955 728.639 291.109 733.122 291.096C762.015 291.014 790.899 291.138 819.79 290.978C821.421 290.969 823.377 290.876 825.008 290.735C830.506 285.636 830.084 280.041 821.864 279.719ZM729.619 255.644C716.605 255.642 702.847 255.266 689.915 255.736C683.125 261.873 686.96 267.154 695.273 266.997C750.758 265.953 807.275 268.472 862.625 266.864C868.545 261.144 866.64 255.81 858.16 255.76C815.319 255.508 772.463 255.65 729.619 255.644ZM404.178 232.418C386.939 232.421 368.043 232.029 350.943 232.473C343.858 238.314 345.894 245.913 354.635 245.932C370.215 245.965 385.816 245.841 401.403 245.841L501.485 245.854L591.22 245.87C603.629 245.873 624.234 246.564 635.915 245.783C639.126 243.044 641.968 239.475 638.722 235.148C637.173 233.084 633.757 232.402 631.363 232.344C618.578 232.392 605.712 232.44 592.932 232.44L509.812 232.431L404.178 232.418ZM819.144 232.458C817.14 234.16 814.911 235.864 814.967 238.714C815.086 244.821 824.446 244.898 828.692 244.775C839.872 244.451 851.031 244.554 862.196 244.558L948.997 244.59L1086.17 244.585C1111.58 244.597 1138.31 245.015 1163.62 244.486C1164.08 244.475 1164.54 244.456 1165 244.426C1174.31 236.048 1165.09 232.23 1156.62 232.205L819.144 232.458ZM735.73 186.677C734.247 185.656 732.32 185.537 730.722 186.37C728.428 187.566 727.468 190.348 728.539 192.704C729.609 195.061 732.335 196.168 734.744 195.225C736.421 194.569 737.599 193.039 737.806 191.248C738.012 189.458 737.214 187.699 735.73 186.677Z" fill="var(--fill-0, #1A3156)"/>
<path id="Vector" d="M747.158 0.548761C759.357 -1.01104 779.965 0.986376 791.897 3.62685C833.459 12.7598 869.776 37.8819 892.993 73.5701C917.609 112.193 923.234 154.359 913.489 198.618L862.315 198.592C839.858 198.576 828.284 196.968 807.718 207.618C807.887 191.399 807.422 164.028 807.872 146.714C807.887 146.368 810.115 145.317 810.397 143.138C808.962 141.643 805.587 140.57 803.541 139.759C803.471 130.248 803.555 120.738 803.787 111.23L827.672 111.016C828.671 105.743 829.269 102.917 830.977 97.8634C823.939 98.1659 817.069 98.6683 809.947 98.911C807.247 95.5452 805.791 96.2944 803.956 93.2431C803.239 90.9973 805.053 87.1383 805.918 84.7131C811.465 84.6639 820.775 83.5895 826.646 83.147L829.093 74.5143C838.775 72.3762 839.64 71.7246 840.961 61.9465C843.57 59.5418 845.047 57.3269 847.121 54.4684C821.302 63.372 796.362 65.33 769.362 66.0019C744.212 66.78 718.005 65.2498 693.201 60.8856C685.205 59.4784 677.813 56.5186 670.439 55.3098L670.008 56.0429C671.267 58.6173 672.531 59.5003 674.662 61.3422C676.8 71.6564 676.766 72.0947 686.938 74.451L689.297 83.1484C696.365 83.8365 703.449 84.3522 710.541 84.6948C714.389 96.7039 712.492 91.3442 706.267 98.9405C699.766 98.8427 692.284 98.2609 685.692 97.9478C687.142 103.3 687.64 105.626 688.223 111.125C696.311 111.177 704.4 111.171 712.488 111.105L712.506 139.745C710.296 140.513 709.419 140.869 707.377 141.994C704.616 147.365 709.017 146.315 708.538 150.08C707.075 151.089 703.892 150.86 702.236 150.649C672.451 146.854 638.663 162.491 623.799 188.867C617.441 200.15 616.79 204.954 602.9 205.142C600.13 193.558 598.326 185.687 597.349 173.84C593.824 131.271 607.413 89.052 635.102 56.5411C663.568 22.965 703.592 4.08627 747.158 0.548761Z" fill="var(--fill-0, #E1363E)"/>
<path id="Vector_2" d="M764.398 111.063L791.384 111.11L791.377 139.849C789.612 140.455 786.336 141.388 785.028 142.566C785.084 142.512 784.472 143.102 784.486 143.136C787.179 147.906 787.299 147.789 787.243 152.926C787.032 172.261 787.102 191.629 787.074 210.958C769.229 204.238 773.904 211.062 771.226 193.5C770.979 192.861 770.712 192.227 770.445 191.598C763.864 176.402 744.387 163.001 729.424 157.102C729.118 148.872 730.92 147.849 730.791 143.342C729.065 140.947 727.57 140.938 724.53 139.711L724.56 111.073C737.838 111.249 751.116 111.246 764.398 111.063Z" fill="var(--fill-0, #E1363E)"/>
<path id="Vector_3" d="M765.383 84.6505L789.76 84.578C790.885 87.552 792.945 91.7719 792.01 94.6129L790.154 94.7937C788.951 95.7506 787.201 97.6629 786.069 98.8315L765.362 98.9145L765.383 84.6505Z" fill="var(--fill-0, #E1363E)"/>
<path id="Vector_4" d="M726.597 84.6097L750.42 84.5724C750.512 88.7143 750.793 94.0374 750.252 98.0379L749.169 98.8202L730.549 98.8653C728.046 95.7717 726.853 96.5956 724.59 93.4661C723.792 91.0086 725.64 87.2361 726.597 84.6097Z" fill="var(--fill-0, #E1363E)"/>
</g>
</svg>
