<svg preserveAspectRatio="none" width="100%" height="100%" overflow="visible" style="display: block;" viewBox="0 0 37.6 37.6" fill="none" xmlns="http://www.w3.org/2000/svg">
<g id="calendar-solid-full 1">
<path id="Vector" d="M13.1601 3.76001C12.1202 3.76001 11.2801 4.60013 11.2801 5.64001V7.52001H9.40009C7.32621 7.52001 5.64009 9.20613 5.64009 11.28V14.1H31.9601V11.28C31.9601 9.20613 30.274 7.52001 28.2001 7.52001H26.3201V5.64001C26.3201 4.60013 25.48 3.76001 24.4401 3.76001C23.4002 3.76001 22.5601 4.60013 22.5601 5.64001V7.52001H15.0401V5.64001C15.0401 4.60013 14.2 3.76001 13.1601 3.76001ZM5.64009 16.92V28.2C5.64009 30.2739 7.32621 31.96 9.40009 31.96H28.2001C30.274 31.96 31.9601 30.2739 31.9601 28.2V16.92H5.64009Z" fill="var(--fill-0, #1A3156)"/>
</g>
</svg>
