<svg preserveAspectRatio="none" width="100%" height="100%" overflow="visible" style="display: block;" viewBox="0 0 37.6 37.6" fill="none" xmlns="http://www.w3.org/2000/svg">
<g id="location-dot-solid-full 1">
<path id="Vector" d="M7.51984 14.8401C7.51984 8.71839 12.5723 3.75989 18.7998 3.75989C25.0273 3.75989 30.0798 8.71839 30.0798 14.8401C30.0798 21.849 23.0181 30.2503 20.0688 33.4521C19.3756 34.2041 18.2182 34.2041 17.525 33.4521C14.5757 30.2503 7.51396 21.849 7.51396 14.8401H7.51984ZM18.7998 18.7999C20.8737 18.7999 22.5598 17.1138 22.5598 15.0399C22.5598 12.966 20.8737 11.2799 18.7998 11.2799C16.726 11.2799 15.0398 12.966 15.0398 15.0399C15.0398 17.1138 16.726 18.7999 18.7998 18.7999Z" fill="var(--fill-0, #1A3156)"/>
</g>
</svg>
