<svg preserveAspectRatio="none" width="100%" height="100%" overflow="visible" style="display: block;" viewBox="0 0 70.8173 70.5866" fill="none" xmlns="http://www.w3.org/2000/svg">
<g id="Group 306">
<path id="Vector" d="M34.289 0.0150464C39.4491 -0.133082 44.582 0.81392 49.3494 2.79358C57.6763 6.25991 64.6401 12.7469 68.0983 21.1515C71.5998 29.6621 71.7942 38.7722 68.2457 47.3008C65.9329 47.2204 63.2898 47.2802 60.9556 47.2789L57.1032 47.2688C54.2031 47.2574 52.0072 47.2798 49.2659 48.4097C48.5495 48.7049 48.0379 48.908 47.3598 49.3361C47.4273 46.0239 47.2959 42.6182 47.3561 39.3006C47.3794 38.0096 47.3069 36.6484 47.3913 35.3641C47.5191 35.1249 47.9348 34.6572 48.1319 34.425C47.6404 34.0089 46.903 33.7248 46.2705 33.6537L46.2719 26.7517C48.1858 26.709 50.2767 26.755 52.2093 26.7511C52.2719 25.647 52.4142 24.6293 52.9272 23.643C51.6229 23.8011 49.2308 23.8418 47.8837 23.8578C47.3046 23.1385 46.8834 23.0345 46.0145 22.9309C46.1436 22.0313 46.4311 21.3062 46.8154 20.4934C48.6371 20.437 50.0819 20.2965 51.8863 20.1588C51.9821 19.8535 52.3129 18.2347 52.5594 18.098C53.0321 17.8355 53.7135 17.87 54.2816 17.5394C55.3298 17.201 55.0706 15.4594 55.3837 15.0661C56.0029 14.288 56.1736 14.7197 56.5752 13.3745C52.0337 15.0496 44.98 15.91 40.0866 16.0095C31.7263 16.2251 22.2128 16.0768 14.2202 13.377C14.5527 14.5084 14.6808 14.3584 15.4462 14.998C15.9106 17.3395 15.73 17.6232 18.3137 18.0119C18.7099 18.7421 18.7179 19.3234 18.9311 20.1057C20.3315 20.3391 22.4718 20.4308 23.9124 20.4915C24.3468 21.2795 24.5914 22.0824 24.6289 22.9775L24.56 22.9823C23.7007 23.0365 23.5232 23.235 22.9559 23.8517C22.0197 23.8464 21.0052 23.7901 20.0645 23.7631C19.542 23.7481 18.4398 23.7236 17.9628 23.641C18.4153 24.6254 18.6196 25.6804 18.6643 26.7621L24.4654 26.7491C24.4983 29.0129 24.482 31.3767 24.4663 33.6441C23.8107 33.7572 23.1235 33.9596 22.6339 34.4265C22.862 34.7149 23.0884 35.0048 23.313 35.2961C23.3531 35.6721 23.3668 35.9031 23.3683 36.281C21.1032 35.719 17.1033 36.0259 14.8681 36.6538C9.22753 38.2383 5.16526 41.4619 2.29199 46.5218C0.861899 43.6774 0.115049 39.0652 0.0178934 35.9156C-0.268097 26.6436 2.87693 17.9001 9.25258 11.1318C15.7826 4.23699 24.7953 0.23514 34.289 0.0150464Z" fill="var(--fill-0, #E1363E)"/>
<path id="Vector_2" d="M20.2981 38.8106C21.4748 38.7243 23.2309 38.8895 24.4236 39.1213C28.4853 39.9094 33.0104 42.4449 35.446 45.8168C35.9325 46.4908 36.3441 47.6162 36.1342 48.4294C35.9183 49.2626 35.52 49.5803 34.8519 50.0078C36.4605 51.213 37.7807 52.159 39.9104 52.1212C38.6637 52.7674 37.9988 52.7769 36.612 52.5004C37.4425 53.5367 37.7428 53.9488 38.8225 54.8054C36.6992 54.318 36.152 53.6851 34.9892 51.8921C34.6456 51.3732 34.3136 50.8466 33.9939 50.3131C33.0882 50.701 31.8616 50.8503 30.8821 50.8667C28.7548 50.9027 27.0439 50.471 25.0645 49.7418C23.2943 49.0897 21.3096 48.1451 19.4087 48.141C17.9707 48.1378 16.4929 48.679 15.4765 49.7167C14.6249 50.5751 14.1551 51.7401 14.1733 52.949C14.1872 54.1952 14.7143 55.3147 15.6015 56.1812C16.5202 57.0771 17.68 57.6858 18.9391 57.9331C19.838 58.1134 21.1257 58.076 22.0641 58.076L25.7939 58.0746L37.8688 58.0787C40.155 58.0582 41.7732 57.5612 43.5169 55.9727C44.0075 55.5259 44.4839 54.9405 44.9576 54.4599C47.2772 52.1088 50.4501 50.4423 53.7659 50.1708C55.3407 50.0421 57.3528 50.1014 58.9673 50.1019L67.6159 50.1C66.5727 51.9122 65.5085 53.712 64.4238 55.4995C60.9332 55.4566 57.3382 55.499 53.8389 55.4995L49.6912 55.4999C48.9743 55.5004 48.2537 55.4913 47.5373 55.5091C47.0732 55.525 46.7843 55.6017 46.4672 55.9535C45.7324 56.7672 46.3074 57.9678 47.3584 58.0372C48.2761 58.0983 49.2582 58.0742 50.1941 58.0751L55.3421 58.0764L59.7622 58.0796C60.4404 58.0805 61.5703 58.1189 62.1996 58.0495C61.5972 58.7934 60.8502 59.7147 60.1926 60.4061L39.4021 60.4056H25.9244L21.8141 60.4052C21.1231 60.4052 20.3468 60.3778 19.6689 60.4275C18.0219 60.5489 18.0293 62.9233 19.8353 62.9529C21.1973 62.9757 22.5618 62.9721 23.9221 62.9721L32.0472 62.9725L57.1734 62.9698C56.2238 63.4923 54.742 64.9353 53.561 65.2862C53.3036 65.3629 52.2919 65.3314 51.9483 65.3318L48.9866 65.3346L34.4352 65.3209L30.2696 65.3314C29.4674 65.3268 28.6122 65.3049 27.8113 65.3396C27.5966 65.3492 27.303 65.4952 27.1438 65.6494C26.9286 65.8566 26.8116 66.1459 26.8221 66.4444C26.8463 67.1376 27.4432 67.6364 28.1189 67.651C29.133 67.6724 30.1492 67.666 31.164 67.6665L37.3682 67.6674L44.6838 67.6688C45.993 67.6688 47.7089 67.7085 49.0021 67.6213C48.2122 67.9887 47.4373 68.3469 46.6173 68.644C39.5089 71.2196 31.2387 71.1735 24.0826 68.8653C16.9403 66.5051 10.7431 61.9166 6.40106 55.7742C5.15515 53.9913 4.42167 52.5839 3.44953 50.681C4.1528 48.7429 5.20814 46.9513 6.56247 45.3961C9.47316 42.0657 13.4378 39.8337 17.7951 39.0725C18.6813 38.9178 19.3975 38.8713 20.2981 38.8106ZM29.6932 46.7979C30.3173 46.6747 30.7268 46.0728 30.6127 45.4467C30.4986 44.8211 29.9032 44.4026 29.2756 44.5071C28.8611 44.576 28.5159 44.863 28.3725 45.2582C28.229 45.653 28.3095 46.0947 28.5831 46.4137C28.8567 46.7327 29.2809 46.8796 29.6932 46.7979Z" fill="var(--fill-0, #1A3156)"/>
<path id="Vector_3" d="M27.3736 26.749C32.7096 26.8049 38.1129 26.7532 43.4553 26.7544L43.4516 33.6199C42.6626 33.8258 42.1689 33.9221 41.5158 34.4098C41.8293 34.7218 42.0612 34.9512 42.3423 35.2953C42.3806 35.8554 42.3628 36.5704 42.3633 37.1427L42.3637 40.3046L42.3633 49.9298L42.3614 50.4628C40.7332 50.2164 39.8739 49.8983 38.4132 49.1582C38.483 48.987 38.5501 48.815 38.6149 48.642C40.15 44.4656 31.8338 38.7608 28.4842 37.5634C28.4805 37.0135 28.4442 35.7934 28.5463 35.2904C28.7937 35.0072 29.0096 34.766 29.227 34.4563C28.6979 33.9661 28.0016 33.8075 27.3202 33.5929C27.3481 32.7997 27.2647 26.9721 27.3736 26.749Z" fill="var(--fill-0, #E1363E)"/>
<path id="Vector_4" d="M37.1149 20.5417C39.0082 20.5936 41.0412 20.5344 42.951 20.5373C43.3599 21.1621 43.678 22.1993 43.6898 22.9565C43.3307 23.0186 43.1801 23.0296 42.8324 23.155C42.4203 23.357 42.2939 23.5154 41.9776 23.8415C40.965 23.7701 39.8433 23.8168 38.8225 23.8038C38.242 23.7963 37.7368 23.8334 37.1523 23.7525C37.0437 23.5334 37.0902 20.9475 37.1149 20.5417Z" fill="var(--fill-0, #E1363E)"/>
<path id="Vector_5" d="M27.8334 20.5298C29.7352 20.554 31.6371 20.5592 33.539 20.5453C33.5399 21.6421 33.524 22.7319 33.5549 23.8288C33.3744 23.8223 33.1938 23.8169 33.0133 23.8128C32.1169 23.8078 31.2204 23.81 30.324 23.8195C29.8577 23.8257 29.2908 23.8589 28.834 23.8299C28.5209 23.4874 28.5451 23.5377 28.2098 23.3006C27.8784 23.0662 27.1736 22.9986 27.0736 22.8439C26.9899 22.281 27.5808 21.0628 27.8334 20.5298Z" fill="var(--fill-0, #E1363E)"/>
</g>
</svg>
