<svg width="466" height="176" viewBox="0 0 466 176" fill="none" xmlns="http://www.w3.org/2000/svg">
<g id="Logotype-group">
<g id="PyCon JP">
<path id="Vector" d="M423.417 53.7843H405.781V81.3884H391.76V1.31451H423.417C439.52 1.31451 449.926 11.8304 449.926 27.4946C449.926 42.9398 439.41 53.7843 423.417 53.7843ZM420.679 13.8021H405.781V41.2967H420.46C430.099 41.2967 435.248 36.1483 435.248 27.3851C435.248 18.6219 429.99 13.8021 420.679 13.8021Z" fill="#1A3156"/>
<path id="Vector_2" d="M334.787 58.8231V54.1129H348.26V58.8231C348.26 64.9574 351.656 69.7771 359.543 69.7771C367.43 69.7771 370.716 65.286 370.716 58.2754V1.31451H384.737V59.0422C384.737 73.1729 374.878 82.8124 359.652 82.8124C343.221 82.8124 334.787 72.6252 334.787 58.8231Z" fill="#1A3156"/>
<path id="Vector_3" d="M271.476 81.3884H258.112V27.2755H270.49L271.586 34.2861C274.981 28.8091 281.554 25.6324 288.893 25.6324C302.476 25.6324 309.486 34.067 309.486 48.0882V81.3884H296.123V51.2649C296.123 42.173 291.631 37.7914 284.73 37.7914C276.515 37.7914 271.476 43.4875 271.476 52.2507V81.3884Z" fill="#1A3156"/>
<g id="Group 311">
<g id="Vector_4">
<path d="M197.052 54.2223C197.052 37.3531 209.211 25.7419 225.971 25.7419C242.731 25.7419 254.89 37.3531 254.89 54.2223C254.89 71.0915 242.731 82.7028 225.971 82.7028C209.211 82.7028 197.052 71.0915 197.052 54.2223ZM210.416 54.2223C210.416 64.0809 216.77 70.7629 225.971 70.7629C235.172 70.7629 241.526 64.0809 241.526 54.2223C241.526 44.3637 235.172 37.6818 225.971 37.6818C216.77 37.6818 210.416 44.3637 210.416 54.2223Z" fill="#E1363E"/>
<path d="M210.416 54.2223C210.416 64.0809 216.77 70.7629 225.971 70.7629C235.172 70.7629 241.526 64.0809 241.526 54.2223C241.526 44.3637 235.172 37.6818 225.971 37.6818C216.77 37.6818 210.416 44.3637 210.416 54.2223Z" fill="#E1363E"/>
</g>
<path id="Vector_5" d="M237.6 31.0759C237.643 31.0353 237.71 31.0247 237.732 31.079C237.739 31.0965 237.747 31.1259 237.744 31.1447C237.681 31.6295 237.488 32.4065 237.39 32.91C237.247 33.6796 237.146 34.4562 237.085 35.2364C236.924 37.3197 237.115 39.3723 237.006 41.4609C236.755 46.2865 234.539 50.5248 231.634 54.2887C231.319 54.6965 230.989 55.0931 230.652 55.486C230.463 55.7069 230.669 55.933 230.904 55.7618C231.573 55.2764 232.257 54.8121 232.954 54.3693C236.206 52.3284 239.635 51.1379 243.496 51.1663C245.653 51.1821 247.839 51.4231 249.989 51.2576C250.325 51.2328 250.659 51.2017 250.994 51.1644C251.212 51.1387 251.663 51.0689 251.902 51.0763C251.941 51.0776 251.988 51.0899 252.013 51.1203C252.042 51.1551 252.017 51.2052 251.986 51.2389C251.895 51.3408 251.694 51.501 251.622 51.5627L250.699 52.3534C249.99 52.9719 249.314 53.6273 248.675 54.317C247.523 55.5754 246.391 57.0367 245.199 58.2329C242.749 60.6933 239.557 62.3131 236.163 62.9801C235.535 63.1044 234.901 63.2004 234.264 63.2673C234.163 63.2777 234.06 63.2872 233.956 63.2963C233.803 63.3096 233.802 63.5452 233.954 63.5647C236.942 63.9446 239.761 65.2154 242.126 67.0625C243.657 68.2586 245.058 69.5821 246.695 70.638C246.799 70.7048 246.922 70.783 246.962 70.8997C246.969 70.9205 246.959 70.9426 246.94 70.9542C246.933 70.9585 246.925 70.9612 246.917 70.9618C246.47 70.9991 245.795 70.8968 245.329 70.8659C243.487 70.7441 241.645 71.0945 239.812 71.2821C237.131 71.5567 234.492 71.4392 231.953 70.4625C230.97 70.084 230.062 69.7144 229.184 69.162C229.09 69.1027 228.981 69.2094 229.045 69.3005C230.455 71.3044 230.659 73.7924 231.099 76.128C231.168 76.4909 231.245 76.8908 231.266 77.2594C231.271 77.3404 231.153 77.35 231.084 77.3084C230.89 77.1923 230.573 76.9197 230.452 76.8256C230.045 76.5036 229.625 76.1997 229.192 75.9144C228.12 75.2233 227.241 74.7592 226.205 73.9738C223.902 72.1914 222.211 69.7457 221.353 66.977C221.253 66.6521 220.817 66.5672 220.612 66.8388C218.236 69.9919 216.348 71.9233 212.959 74.3452C212.619 74.589 212.25 74.8341 211.896 75.0738C211.769 75.1595 211.604 75.1662 211.471 75.0907L210.13 74.3285C209.847 74.1679 209.863 73.7545 210.155 73.6116C212.932 72.2524 215.299 70.7307 217.468 68.4016C217.804 68.0409 218.105 67.693 218.399 67.3389C218.646 67.0415 218.335 66.6185 217.964 66.7289C215.889 67.3405 213.695 67.4317 211.577 66.9942C211.062 66.8886 210.555 66.745 210.062 66.5644C208.404 65.9658 206.847 65.101 205.129 64.6426C205.08 64.6295 205 64.6061 204.928 64.5753C204.82 64.5292 204.804 64.406 204.904 64.3454C205.058 64.2528 205.307 64.1769 205.424 64.1281C205.725 64.0039 206.022 63.8687 206.313 63.7224C208.512 62.626 210.349 61.5806 212.764 61.6953C212.911 61.7023 212.965 61.5118 212.833 61.4455C209.922 59.9842 207.668 57.9661 206.182 55.0486C205.503 53.7147 205.056 52.5318 204.447 51.2184C204.162 50.6096 203.853 50.0126 203.52 49.4289C203.391 49.2 203.037 48.6017 202.905 48.3134C202.881 48.2591 202.896 48.1543 202.951 48.1777C203.605 48.4576 204.611 49.0509 205.25 49.3185C206.198 49.7159 207.119 50.0092 208.043 50.3711C210.46 51.3185 212.149 52.3155 213.8 53.8515C214.048 54.0821 214.429 53.8026 214.278 53.4995C212.421 49.7673 211.903 45.5104 212.812 41.4422C213.124 40.0526 213.624 38.7829 213.989 37.4254C214.214 36.6069 214.41 35.7805 214.574 34.9476C214.671 34.4738 214.776 33.9431 214.884 33.4674C214.896 33.412 214.916 33.4068 214.954 33.3926C214.965 33.3882 214.978 33.3902 214.988 33.3982C214.992 33.4017 214.995 33.4061 214.997 33.4111C215.419 34.4982 215.976 36.1508 216.519 37.1329C217.23 38.3835 218.15 39.5476 218.934 40.7543C220.849 43.7051 222.022 46.922 222.333 50.434C222.364 50.7818 222.872 50.812 222.944 50.4703C224.003 45.4245 225.916 41.2532 230.094 37.5724C231.604 36.242 233.266 35.1679 234.73 33.904C235.344 33.3786 235.933 32.8236 236.493 32.2409C236.83 31.8917 237.247 31.4151 237.6 31.0759Z" fill="white"/>
</g>
<path id="Vector_6" d="M157.468 82.7029C134.136 82.7029 119.019 66.491 119.019 41.4063C119.019 16.5406 134.684 6.10352e-05 158.125 6.10352e-05C177.076 6.10352e-05 191.206 11.0636 193.945 28.2614H179.157C176.418 18.9505 168.422 13.4735 157.797 13.4735C143.009 13.4735 133.698 24.2084 133.698 41.2967C133.698 58.2754 143.118 69.2295 157.797 69.2295C168.641 69.2295 176.966 63.5334 179.595 54.6606H194.164C191.097 71.5298 176.418 82.7029 157.468 82.7029Z" fill="#1A3156"/>
<path id="Vector_7" d="M62.0878 106.473V95.3H70.0843C75.3422 95.3 78.6284 94.095 80.9288 87.7417L82.4623 83.6887L60.6638 27.2755H74.7945L88.7061 66.71L103.384 27.2755H117.187L90.6778 93.4378C86.6248 103.515 80.9288 107.678 72.056 107.678C68.3316 107.678 65.0454 107.24 62.0878 106.473Z" fill="#1A3156"/>
<path id="Vector_8" d="M31.6688 53.7841H14.0329V81.3883H0.0117188V1.31439H31.6688C47.7712 1.31439 58.1776 11.8302 58.1776 27.4945C58.1776 42.9397 47.6617 53.7841 31.6688 53.7841ZM28.9303 13.802H14.0329V41.2966H28.7113C38.3508 41.2966 43.4992 36.1482 43.4992 27.385C43.4992 18.6217 38.2412 13.802 28.9303 13.802Z" fill="#1A3156"/>
</g>
<g id="Frame 26">
<rect x="160.999" y="114.736" width="143.968" height="59.8412" rx="2.60522" stroke="#E1363E" stroke-width="2.00401"/>
<g id="2026">
<path id="Vector_9" d="M266.722 140.118L273.896 130.459H277.263L269.728 140.439C271.091 139.758 272.333 139.477 273.656 139.477C279.628 139.477 283.596 143.846 283.596 149.457C283.596 155.349 279.147 159.637 273.415 159.637C267.644 159.637 263.115 155.188 263.115 149.457C263.115 146.13 264.037 143.806 266.722 140.118ZM266.041 149.497C266.041 153.866 269.047 157.032 273.415 157.032C277.664 157.032 280.71 153.866 280.71 149.497C280.71 145.128 277.664 142.002 273.415 142.002C269.047 142.002 266.041 145.128 266.041 149.497Z" fill="#E1363E"/>
<path id="Vector_10" d="M256.681 159.156H237.763V156.872L246.942 148.856C252.232 144.247 253.595 142.243 253.595 138.836C253.595 134.948 251.27 132.583 247.463 132.583C243.495 132.583 240.889 135.469 240.769 139.918H237.883C238.044 133.906 241.851 129.938 247.503 129.938C252.914 129.938 256.521 133.425 256.521 138.675C256.521 142.844 254.637 145.609 248.906 150.619L242.212 156.471H256.681V159.156Z" fill="#E1363E"/>
<path id="Vector_11" d="M207.999 144.808C207.999 135.91 212.368 129.898 219.502 129.898C226.596 129.898 230.965 135.91 230.965 144.808C230.965 153.746 226.676 159.677 219.502 159.677C212.287 159.677 207.999 153.746 207.999 144.808ZM210.844 144.808C210.844 152.263 214.011 157.072 219.502 157.072C224.993 157.072 228.159 152.263 228.159 144.808C228.159 137.313 224.993 132.543 219.502 132.543C214.011 132.543 210.844 137.313 210.844 144.808Z" fill="#E1363E"/>
<path id="Vector_12" d="M201.204 159.156H182.286V156.872L191.465 148.856C196.755 144.247 198.118 142.243 198.118 138.836C198.118 134.948 195.793 132.583 191.986 132.583C188.018 132.583 185.413 135.469 185.292 139.918H182.407C182.567 133.906 186.375 129.938 192.026 129.938C197.437 129.938 201.044 133.425 201.044 138.675C201.044 142.844 199.16 145.609 193.429 150.619L186.735 156.471H201.204V159.156Z" fill="#E1363E"/>
</g>
</g>
<line id="Line 1" x1="327.527" y1="145.407" x2="465.965" y2="145.407" stroke="#E1363E" stroke-width="2.00401"/>
<line id="Line 2" y1="145.407" x2="138.437" y2="145.407" stroke="#E1363E" stroke-width="2.00401"/>
</g>
</svg>
