<svg width="1774" height="183" viewBox="0 0 1774 183" fill="none" xmlns="http://www.w3.org/2000/svg">
<path id="Vector" d="M0 1.64933C80.9216 -4.08412 154.885 4.91758 231.141 31.9971C251.059 39.0705 271.226 47.4208 290.91 54.1746C318.523 63.4942 347.105 69.646 376.107 72.5106C409.925 76.134 443.315 75.5371 477.557 76.3367C489.094 76.606 516.609 75.1292 527.742 80.1263C529.293 80.8228 529.821 83.0039 530.201 84.6141C528.871 89.5905 523.355 91.6305 518.629 91.8072C499.239 92.5322 479.761 92.5175 460.349 92.7167L348.802 94.1572C336.116 94.3547 319.455 93.8731 307.359 95.5596C299.157 96.703 297.599 109.848 312.552 110.516C330.465 111.315 348.126 110.554 366.035 110.523L570.934 110.466C597.55 110.389 624.167 110.665 650.777 111.295C664.056 111.669 677.541 111.972 690.745 113.377C697.048 114.047 704.139 115.451 704.172 123.103C703.233 125.84 701.543 127.477 698.978 128.736C684.694 135.751 479.755 132.633 446.473 132.654C434.293 132.662 399.448 131.172 389.733 133.499C386.613 134.246 384.012 136.343 382.91 139.408C382.497 140.557 382.525 141.507 382.713 142.691C385.633 148.1 394.536 149.073 400.116 149.082C423.401 149.118 446.683 148.987 469.972 149.008L630.216 149.018L1103.13 149.063L1297.1 149.033C1312.24 149.033 1375.94 149.978 1387.28 147.198C1391.38 143.659 1392.72 139.941 1388.64 135.501C1386.42 133.091 1379.45 133.311 1376.21 132.914C1353.45 132.49 1330.3 132.62 1307.55 132.615L1176.48 132.585C1147.68 132.564 1119.15 132.241 1090.46 129.974C1073.16 128.607 1077.51 113.462 1086.3 112.869C1205.83 104.806 1326.54 111.437 1446.33 110.814C1453.23 110.777 1472.13 112.842 1472.69 102.696C1472.73 96.1287 1464.91 94.9368 1459.99 94.6596C1440.1 94.2872 1419.92 93.6297 1400.04 93.4071L1294.94 92.171C1285.68 92.0714 1276.35 92.0922 1267.11 91.899C1259.91 91.7491 1246.36 93.1169 1243.02 85.4899C1243.25 83.0784 1243.82 81.1277 1245.87 79.63C1252.82 74.5601 1344.52 75.7649 1361.01 75.2002C1375.08 74.7047 1389.11 73.6782 1403.1 72.1217C1464.61 65.3132 1501.81 48.1632 1558.81 27.323C1612.04 7.8549 1674.62 -0.468552 1730.92 0.0702312C1742.97 0.185437 1762.13 0.365645 1774 1.7741V183.008L1526.43 183.017L1032.86 183.016L0 182.928V1.64933Z" fill="#1a3156"/>
</svg>
